<svg xmlns="http://www.w3.org/2000/svg" xmlns:xlink="http://www.w3.org/1999/xlink" viewBox="0 0 135.685 11.318">
    <path d="M24.063 0h-2.124v11.318h10.978v-1.768h-8.854v-9.55zm43.403 4.792h-7.783v-4.792h-2.124v11.318h2.124v-4.861h7.783v4.861h2.124v-11.318h-2.124v4.792zm67.612 5.702c0-.096-.062-.183-.198-.2.131-.03.204-.114.204-.216v-.034c0-.152-.134-.262-.382-.262h-.442v.989h.23v-.393h.218c.108 0 .14.044.14.11v.131c0 .091.035.155.105.155h.177v-.033l-.052-.133v-.114zm-.221-.381c0 .082-.05.12-.152.12h-.215v-.268h.215c.108 0 .152.049.152.122v.026zm-119.971 1.205h2.125v-11.318h-2.125v11.318zm-12.762-11.318h-2.124v11.318h10.978v-1.768h-8.854v-9.55zm37.982 5.251l-4.368-5.251h-2.515l5.71 6.763v4.555h2.124v-4.521l5.659-6.797h-2.515l-4.095 5.251zm95.575-5.251h-12.015v1.767h4.945v9.551h2.124v-9.551h4.946v-1.767zm-22.144 0h-5.795v11.318h5.795c4.011 0 6.56-2.448 6.56-5.456v-.374c0-3.059-2.549-5.488-6.56-5.488m4.436 5.795c0 2.192-1.717 3.789-4.487 3.789h-3.619v-7.817h3.619c2.77 0 4.487 1.563 4.487 3.756v.272zm-17.283 2.583l-.731-.816-7.138-7.562h-2.039v11.318h2.125v-8.379l.713.799 7.359 7.58h1.835v-11.318h-2.124v8.378zm33.954.857c-.596 0-1.041.465-1.041 1.041s.445 1.042 1.041 1.042c.599 0 1.041-.466 1.041-1.042s-.442-1.041-1.041-1.041m0 1.937c-.517 0-.875-.401-.875-.896 0-.494.358-.892.875-.892.518 0 .876.398.876.892 0 .495-.358.896-.876.896m-55.384-11.172l-6.118 11.318h2.243l1.445-2.805h6.645l1.495 2.805h2.278l-6.221-11.318h-1.767zm-1.631 6.967l2.464-4.758 2.549 4.758h-5.013z" fill="#231F20" />
</svg>