<svg xmlns="http://www.w3.org/2000/svg" viewBox="0 0 18.708 15.397" enable-background="new 0 0 18.708 15.397"><path xmlns="http://www.w3.org/2000/svg" d="M12.794 4.191h.813v-3.378h1.924v5.108h-11.981v-5.921h-3.55v9.473h15.53v5.108h-1.924v-3.384h-.813v4.197h3.55v-6.735h-15.53l.001-7.846h1.923v5.922h13.607v-6.735h-3.55v4.191zm5.22 9.818c-.397 0-.694.31-.694.694 0 .384.297.694.694.694.399 0 .694-.311.694-.694 0-.385-.295-.694-.694-.694m0 1.291c-.346 0-.584-.268-.584-.597 0-.33.238-.596.584-.596s.584.266.584.596c0 .329-.239.597-.584.597m-15.278-.719h-1.923v-3.381h-.813v4.194h3.55v-4.194h-.814v3.381zm15.567.268c0-.064-.041-.123-.132-.134.087-.02.136-.076.136-.144v-.023c0-.102-.09-.175-.254-.175h-.295v.659h.153v-.262h.146c.071 0 .093.029.093.074v.087c0 .061.023.103.069.103h.119v-.021l-.035-.089v-.075zm-.148-.255c0 .055-.033.08-.101.08h-.144v-.179h.144c.071 0 .101.033.101.081v.018z"/></svg>